Coordinates
version=1
nRows=28
nColumns=23
inDegrees=yes

Units are S.I. units (second, meters, Newtons, ...)
If the header above contains a line with 'inDegrees', this indicates whether rotational values are in degrees (yes) or radians (no).

endheader
time	pelvis_tilt	pelvis_list	pelvis_rotation	pelvis_tx	pelvis_ty	pelvis_tz	hip_flexion_r	hip_adduction_r	hip_rotation_r	knee_angle_r	knee_angle_r_beta	ankle_angle_r	subtalar_angle_r	mtp_angle_r	hip_flexion_l	hip_adduction_l	hip_rotation_l	knee_angle_l	knee_angle_l_beta	ankle_angle_l	subtalar_angle_l	mtp_angle_l
     15.00000000	      2.22715823	     -9.62013222	     -6.28823348	      2.13347405	      0.99091556	      1.06469506	     14.58531968	     12.24824961	     -2.28390360	     47.73125249	      0.83306751	     27.98155386	      3.10958875	      0.00000000	     18.34861190	    -12.26779583	     -2.79127159	     95.80769854	      1.67215979	     -9.47995804	    -11.83097753	      0.00000000
     15.00666667	      2.33647090	     -9.37748723	     -5.87817775	      2.13270845	      0.99296130	      1.06412668	     12.94528702	     11.72683997	     -2.50554880	     46.73088827	      0.81560786	     28.30726679	      3.74293071	      0.00000000	     19.90888284	    -11.98577953	     -2.20819140	     95.76320969	      1.67138331	     -8.83447925	    -11.57195796	      0.00000000
     15.01333333	      2.56185004	     -9.07548098	     -5.48568386	      2.13225920	      0.99565490	      1.06356805	     11.06187166	     11.11812256	     -2.79364371	     45.52896659	      0.79463037	     28.55965049	      4.74254549	      0.00000000	     21.18576714	    -11.64384100	     -1.79713540	     95.39681201	      1.66498847	     -8.12663080	    -11.23554960	      0.00000000
     15.02000000	      2.28425753	     -8.63583606	     -5.33535796	      2.13184432	      0.99817790	      1.06341389	      9.68891712	     10.62074618	     -2.57307138	     44.24854162	      0.77228274	     28.69802924	      5.00584910	      0.00000000	     22.87803941	    -11.28953288	     -1.66304372	     94.79137949	      1.65442167	     -7.71535396	    -11.17806192	      0.00000000
     15.02666667	      2.67083548	     -8.41603224	     -4.65291419	      2.13193369	      1.00190849	      1.06265410	      7.34879815	     10.16994481	     -2.99800202	     42.44313786	      0.74077250	     28.65953933	      5.66615907	      0.00000000	     23.81276510	    -10.89220871	     -1.10619132	     93.91822503	      1.63918225	     -6.91706594	    -10.79722057	      0.00000000
     15.03333333	      2.19214902	     -7.90709643	     -4.47515651	      2.13194905	      1.00497751	      1.06249667	      6.05512901	      9.68401625	     -2.74673860	     40.86959192	      0.71330894	     28.64345463	      6.00482393	      0.00000000	     25.50295751	    -10.40091478	     -1.05648570	     92.81482645	      1.61992432	     -6.43516180	    -10.72595238	      0.00000000
     15.04000000	      2.59909670	     -7.56147302	     -3.90147055	      2.13255981	      1.00937605	      1.06199083	      3.55040291	      9.22482276	     -2.99762649	     38.77371153	      0.67672893	     28.32331712	      6.43249532	      0.00000000	     26.07403571	     -9.95266313	     -0.84858586	     91.40523578	      1.59532232	     -5.77827858	    -10.53929328	      0.00000000
     15.04666667	      2.11339376	     -6.99886909	     -3.64358796	      2.13304754	      1.01295763	      1.06176234	      2.16470860	      8.68337981	     -2.92902329	     36.95397482	      0.64496853	     27.94393681	      6.78312670	      0.00000000	     27.52197628	     -9.34806674	     -0.87880131	     89.84253885	      1.56804811	     -5.25042680	    -10.49412715	      0.00000000
     15.05333333	      2.14852119	     -6.46308821	     -3.21110647	      2.13401061	      1.01743405	      1.06134841	      0.07464609	      8.14291926	     -3.02517497	     34.83135725	      0.60792187	     27.17772495	      7.01125460	      0.00000000	     28.21169148	     -8.69982886	     -0.90923565	     87.96365032	      1.53525532	     -4.74061580	    -10.54111936	      0.00000000
     15.06000000	      2.18127908	     -5.82815224	     -2.89434705	      2.13510932	      1.02212810	      1.06104717	     -1.99426921	      7.49767489	     -3.11276280	     32.70290707	      0.57077340	     26.02077220	      7.19520316	      0.00000000	     28.72715902	     -8.01979295	     -1.16375602	     85.83878390	      1.49816940	     -4.29238919	    -10.64212643	      0.00000000
     15.06666667	      2.09736361	     -5.17800645	     -2.60962297	      2.13635119	      1.02681910	      1.06072508	     -3.93344545	      6.89118127	     -3.10853813	     30.54123613	      0.53304513	     24.59741323	      7.21616428	      0.00000000	     29.25087937	     -7.30810195	     -1.44302898	     83.52384093	      1.45776603	     -3.85287836	    -10.77296602	      0.00000000
     15.07333333	      1.88018582	     -4.49194730	     -2.34646397	      2.13769484	      1.03142455	      1.06035528	     -5.66016772	      6.24904141	     -3.18531724	     28.46660854	      0.49683605	     22.89058470	      7.22595690	      0.00000000	     29.80958864	     -6.53897491	     -1.75340611	     81.02559691	      1.41416344	     -3.42245631	    -10.84891681	      0.00000000
     15.08000000	      1.90440290	     -3.89848055	     -2.11163914	      2.13920080	      1.03647185	      1.06004183	     -7.75547001	      5.84305903	     -2.72773477	     26.09444790	      0.45543403	     20.63870970	      6.19352932	      0.00000000	     29.95045124	     -5.92070002	     -2.13111239	     78.32337223	      1.36700073	     -2.97304055	    -10.88872174	      0.00000000
     15.08666667	      1.75950016	     -3.18879194	     -1.79088633	      2.14074944	      1.04117600	      1.05944431	     -9.46932354	      5.15912367	     -3.09754138	     24.08529778	      0.42036775	     18.38990934	      6.17638886	      0.00000000	     30.20255997	     -5.04336113	     -2.39659397	     75.45848623	      1.31699903	     -2.55153086	    -10.95034939	      0.00000000
     15.09333333	      1.61043937	     -2.59930617	     -1.54064406	      2.14233010	      1.04591186	      1.05896779	    -11.21888819	      4.76605702	     -2.74469660	     21.91998757	      0.38257596	     15.58594476	      4.93277058	      0.00000000	     30.35357484	     -4.37371579	     -2.72374763	     72.46627640	      1.26477512	     -2.06086177	    -10.74824929	      0.00000000
     15.10000000	      1.42340472	     -1.93815860	     -1.18785688	      2.14390660	      1.05036565	      1.05823610	    -12.69496941	      4.15570951	     -3.29239027	     20.19554672	      0.35247878	     12.98612512	      4.81231322	      0.00000000	     30.47044771	     -3.50640669	     -2.91774817	     69.33097890	      1.21005386	     -1.57438979	    -10.50445463	      0.00000000
     15.10666667	      1.29291206	     -1.38907862	     -0.95626050	      2.14545966	      1.05490861	      1.05763239	    -14.24963025	      3.77197881	     -3.13166089	     18.34932598	      0.32025615	      9.92953744	      3.60999876	      0.00000000	     30.40749164	     -2.84446239	     -3.19846402	     66.05568719	      1.15288923	     -1.06602957	    -10.00384110	      0.00000000
     15.11333333	      0.99935849	     -0.88655444	     -0.53818917	      2.14691286	      1.05892624	      1.05668872	    -15.36703736	      3.37097412	     -3.77357616	     17.01147799	      0.29690630	      7.13281399	      3.12583603	      0.00000000	     30.50060766	     -2.03898507	     -3.15800680	     62.73935047	      1.09500824	     -0.44374722	     -9.25838157	      0.00000000
     15.12000000	      0.78575092	     -0.49180608	     -0.26730119	      2.14837929	      1.06302980	      1.05593460	    -16.61842758	      3.20343735	     -3.45811651	     15.49402610	      0.27042177	      3.83360646	      1.28367341	      0.00000000	     30.37840457	     -1.49185197	     -3.29576873	     59.29893868	      1.03496172	      0.16691361	     -8.24675129	      0.00000000
     15.12666667	      0.48440243	     -0.13966414	      0.09754985	      2.14971602	      1.06666120	      1.05500693	    -17.46152169	      2.97272357	     -3.98615711	     14.59548528	      0.25473927	      0.94555921	      0.40885677	      0.00000000	     30.31334097	     -0.89925520	     -3.26273922	     55.83467276	      0.97449888	      0.81233318	     -7.03435053	      0.00000000
     15.13333333	     -0.07415306	      0.11893743	      0.47919516	      2.15087336	      1.06966983	      1.05402000	    -17.66560907	      2.72924778	     -5.16466793	     14.40660234	      0.25144264	     -1.48441785	      0.25884790	      0.00000000	     30.48728915	     -0.35116244	     -3.10611572	     52.36562334	      0.91395254	      1.38124298	     -5.74042730	      0.00000000
     15.14000000	     -0.17595553	      0.36103516	      0.83584158	      2.15219087	      1.07301453	      1.05308553	    -18.46519248	      2.59712805	     -5.84829450	     13.97560699	      0.24392036	     -4.06710751	     -0.54508485	      0.00000000	     30.04261518	      0.09394059	     -3.09624702	     48.83204267	      0.85227993	      2.03928647	     -3.98329914	      0.00000000
     15.14666667	     -0.72633031	      0.45831898	      1.24532863	      2.15321874	      1.07540366	      1.05200223	    -18.39734380	      2.50418900	     -7.06522424	     14.30805050	      0.24972259	     -6.22635050	     -0.98982780	      0.00000000	     30.09692186	      0.50446576	     -2.82470297	     45.39875744	      0.79235779	      2.51157346	     -2.43252031	      0.00000000
     15.15333333	     -1.20338072	      0.48296983	      1.62523428	      2.15425400	      1.07750178	      1.05093036	    -18.30572949	      2.46458235	     -8.20044190	     14.84715820	      0.25913180	     -8.14737522	     -1.40350386	      0.00000000	     30.02268664	      0.82710918	     -2.55277784	     42.03637669	      0.73367318	      2.92797426	     -0.79579550	      0.00000000
     15.16000000	     -1.40141421	      0.54934529	      1.96210334	      2.15528687	      1.07948436	      1.04993358	    -18.37753963	      2.32892038	     -9.45453547	     15.67643720	      0.27360544	     -9.78560251	     -1.75781505	      0.00000000	     29.59999872	      1.08270821	     -2.54309160	     38.79230800	      0.67705350	      3.30278372	      1.18975117	      0.00000000
     15.16666667	     -1.80747207	      0.53223772	      2.32148990	      2.15619733	      1.08070343	      1.04885415	    -18.05387328	      2.22239002	    -10.71190535	     16.86723796	      0.29438884	    -11.22768053	     -2.28394512	      0.00000000	     29.41539962	      1.34074861	     -2.32668461	     35.74132723	      0.62380384	      3.48163785	      2.78901930	      0.00000000
     15.17333333	     -2.17549215	      0.55370152	      2.65664761	      2.15705123	      1.08145107	      1.04773793	    -17.61287574	      1.96307110	    -12.20219915	     18.42842599	      0.32163671	    -12.22940947	     -2.20980256	      0.00000000	     29.19731173	      1.62693452	     -2.16827068	     32.92605002	      0.57466798	      3.55353110	      4.27157442	      0.00000000
     15.18000000	     -2.54234384	      0.52691798	      3.01562993	      2.15786743	      1.08169666	      1.04660110	    -17.16916424	      1.83155568	    -13.15428130	     19.97898147	      0.34869901	    -13.37935982	     -3.02115125	      0.00000000	     29.01437246	      1.88862332	     -1.93880175	     30.41484489	      0.53083918	      3.55304205	      5.58066353	      0.00000000
